<svg width="60" height="60" viewBox="0 0 60 60" fill="none" xmlns="http://www.w3.org/2000/svg">
<path d="M37.1047 0.809311L34.7437 0.066386C34.4398 -0.049935 34.1404 -0.0133545 33.8493 0.17582C33.5573 0.365148 33.36 0.649369 33.2587 1.02802L19.0579 57.4419C18.9565 57.8207 18.9883 58.1779 19.1532 58.5125C19.3182 58.8477 19.5653 59.0734 19.8957 59.1898L22.2561 59.933C22.5607 60.0502 22.859 60.0135 23.1509 59.824C23.4429 59.6338 23.6397 59.3505 23.7409 58.9724L37.9422 2.55765C38.0434 2.17899 38.0119 1.82176 37.8467 1.48642C37.6816 1.15123 37.4348 0.925478 37.1047 0.809311Z" fill="#2352DE"/>
<path d="M19 10.743C19 10.3523 18.891 10.0062 18.6734 9.70586L17.041 7.45121C16.8234 7.15067 16.573 7 16.2901 7C16.0072 7 15.7567 7.15083 15.5392 7.45121L0.326563 28.4632C0.108626 28.7637 0 29.1096 0 29.5003C0 29.891 0.108969 30.2369 0.326563 30.5373L15.5391 51.5493C15.7566 51.8503 16.0066 52 16.29 52C16.5733 52 16.8234 51.8498 17.0408 51.5493L18.6733 49.2959C18.8909 48.9955 18.9999 48.6495 18.9999 48.2583C18.9999 47.868 18.8909 47.5221 18.6733 47.2218L5.84372 29.5003L18.6734 11.7801C18.8914 11.4798 19 11.1337 19 10.743Z" fill="#2352DE"/>
<path d="M59.6736 28.4629L44.4597 7.45121C44.2422 7.15082 43.9916 7 43.7092 7C43.4258 7 43.1762 7.15082 42.9579 7.45121L41.326 9.70567C41.1085 10.0062 41 10.3516 41 10.7428C41 11.134 41.1084 11.4795 41.326 11.7799L54.1568 29.5004L41.326 47.2218C41.1085 47.5222 41 47.8682 41 48.2583C41 48.6497 41.1084 48.9955 41.326 49.2959L42.9579 51.5493C43.1762 51.8503 43.4259 52 43.7092 52C43.9917 52 44.2422 51.8498 44.4597 51.5493L59.6736 30.5377C59.8913 30.2373 60 29.8908 60 29.5001C60 29.1092 59.8913 28.7633 59.6736 28.4629Z" fill="#2352DE"/>
</svg>
